<svg width="634" height="477" viewBox="0 0 634 477" fill="none" xmlns="http://www.w3.org/2000/svg">
<path d="M422.238 53.1034C472.351 60.8591 533.497 74.7145 566.363 109.472C599.111 144.212 603.561 199.853 570.376 234.289C537.192 268.742 466.456 281.787 427.813 317.659C389.154 353.43 382.587 411.91 355.633 429.55C328.679 447.275 281.236 424.143 243.03 400.91C204.707 377.677 175.654 354.342 131.2 330.399C86.8812 306.355 27.179 281.786 7.79889 243.988C-11.5812 206.173 9.46149 155.127 35.0889 107.123C60.8171 59.1187 91.214 14.0883 135.096 3.67984C178.979 -6.6104 236.447 17.6536 284.679 30.698C332.911 43.7425 372.108 45.3646 422.238 53.1034Z" fill="#F7F7F7"/>
<path d="M327.621 177.161H405.461V236.587H327.621V177.161Z" fill="white"/>
<path d="M327.621 245.678H405.461V305.104H327.621V245.678Z" fill="white"/>
<path d="M386.299 258.351C386.265 259.567 385.98 260.75 385.476 261.865C384.972 262.997 384.284 263.977 383.394 264.822C382.503 265.667 381.496 266.309 380.354 266.748C379.212 267.188 378.036 267.39 376.81 267.373C375.601 267.34 374.426 267.069 373.3 266.579C372.192 266.089 371.201 265.397 370.362 264.518C369.505 263.639 368.867 262.609 368.413 261.476C367.96 260.327 367.742 259.145 367.758 257.911C367.775 256.678 368.01 255.495 368.497 254.363C368.968 253.231 369.639 252.234 370.513 251.372C371.369 250.51 372.377 249.834 373.502 249.378C374.627 248.905 375.803 248.669 377.029 248.669C378.288 248.685 379.481 248.956 380.623 249.463C381.781 249.953 382.789 250.662 383.645 251.575C384.519 252.487 385.19 253.518 385.644 254.684C386.097 255.867 386.316 257.083 386.299 258.351Z" fill="white"/>
<path d="M327.621 314.195H405.461V373.621H327.621V314.195Z" fill="white"/>
<path d="M386.299 326.868C386.265 328.084 385.98 329.267 385.476 330.382C384.972 331.514 384.284 332.494 383.394 333.339C382.503 334.184 381.496 334.826 380.354 335.265C379.212 335.705 378.036 335.907 376.81 335.874C375.601 335.857 374.426 335.586 373.3 335.096C372.192 334.606 371.201 333.914 370.362 333.035C369.505 332.139 368.867 331.126 368.413 329.994C367.96 328.845 367.742 327.662 367.758 326.428C367.775 325.195 368.01 324.012 368.497 322.88C368.968 321.748 369.639 320.751 370.513 319.889C371.369 319.027 372.377 318.352 373.502 317.895C374.627 317.422 375.803 317.186 377.029 317.186C378.288 317.203 379.481 317.473 380.623 317.98C381.781 318.47 382.789 319.18 383.645 320.092C384.519 320.987 385.19 322.035 385.644 323.201C386.097 324.384 386.316 325.6 386.299 326.868Z" fill="white"/>
<path d="M156.811 470.711C156.811 470.711 186.922 457.819 185.26 447.241C183.614 436.647 154.863 433.555 154.863 433.555C154.863 433.555 174.579 376.561 158.104 370.969C141.612 365.376 126.246 399.457 126.246 399.457C126.246 399.457 127.455 345.539 103.759 345.539C80.0797 345.539 82.9346 403.715 82.9346 403.715C82.9346 403.715 61.5393 375.091 47.4828 383.354C33.4431 391.617 59.1713 433.741 59.1713 433.741C59.1713 433.741 37.5073 428.722 31.3103 437.458C25.1302 446.211 53.579 465.676 59.7759 470.711H156.811Z" fill="#2A9D8F"/>
<path d="M93.2152 444.795C93.0473 444.39 77.6977 402.722 56 384.896L56.7053 384C78.6549 402.029 94.1221 443.984 94.2732 444.407L93.2152 444.795Z" fill="#00B98F"/>
<path d="M98.3346 458.833L97.243 458.545C97.3438 458.106 108.629 413.346 102.214 375.091L103.339 374.906C109.788 413.397 98.4522 458.376 98.3346 458.833Z" fill="#00B98F"/>
<path d="M101.677 465.896L100.887 465.085C101.358 464.628 147.591 418.838 152.193 383.202L153.318 383.354C148.666 419.378 102.147 465.439 101.677 465.896Z" fill="#00B98F"/>
<path d="M109.486 457.65L108.881 456.687C109.083 456.552 113.987 453.476 124.147 450.925C133.484 448.576 149.22 446.278 171.102 448.661L170.985 449.793C149.254 447.444 133.669 449.708 124.432 452.04C114.44 454.541 109.536 457.616 109.486 457.65Z" fill="#00B98F"/>
<path d="M100.666 455.662C100.414 455.459 73.9633 434.557 48.1847 438.68L48 437.548C74.2824 433.358 101.102 454.563 101.371 454.783L100.666 455.662Z" fill="#00B98F"/>
<path d="M554.641 399.288C547.57 394.151 543.691 383.878 546.848 379.434C549.367 375.919 554.473 378.623 557.445 374.855C561.325 369.921 554.775 362.469 558.923 356.285C561.19 352.889 565.439 351.757 567.27 351.267C571.888 350.033 573.282 351.791 579.16 350.878C583.039 350.27 587.305 349.678 588.85 346.755C590.579 343.511 587.288 340.706 589.202 336.431C590.21 334.285 591.805 332.782 594.005 331.954C597.986 330.771 599.934 334.708 604.619 335.485C612.932 336.887 617.097 325.719 625.208 327.189C628.685 327.831 632.463 330.686 632.732 333.762C633.269 339.777 620.439 342.818 620.573 349.966C620.657 354.663 626.3 356.302 625.527 360.577C624.94 363.77 621.127 366.423 617.601 367.099C611.135 368.333 607.928 362.453 600.924 363.973C599.363 364.328 596.625 364.936 595.786 366.93C594.039 371.121 602.906 376.038 601.546 381.597C600.656 385.246 595.92 386.919 595.265 387.156C587.506 389.893 581.007 382.813 577.816 385.399C574.676 387.933 580.234 395.402 576.859 400.099C573.383 404.931 561.946 404.61 554.641 399.288Z" fill="#2A9D8F"/>
<path d="M559.796 389.859C559.578 389.859 559.41 389.758 559.309 389.572C559.192 389.369 559.192 389.183 559.309 388.998C566.094 377.761 574.373 367.826 584.181 359.141C593.972 350.473 604.837 343.477 616.744 338.138C617.097 337.986 617.349 338.087 617.5 338.425C617.651 338.78 617.55 339.033 617.214 339.185C605.391 344.457 594.627 351.402 584.92 360.002C575.213 368.603 567.001 378.471 560.283 389.589C560.166 389.775 559.998 389.859 559.796 389.859Z" fill="#00B98F"/>
<path d="M551.282 404.34C561.308 397.902 568.143 391.735 566.95 387.274C565.741 382.729 557.126 383.388 555.564 378.353C553.146 370.495 570.914 360.864 568.714 355.187C566.262 348.8 541.474 355.136 539.291 349.172C537.225 343.511 558.134 333.728 555.816 324.857C554.725 320.633 548.914 318.757 547.016 318.149C534.152 313.992 521.07 324.823 518.433 321.14C518.013 320.345 517.929 319.534 518.181 318.673C518.735 314.415 523.975 314.06 526.024 309.548C527.199 306.997 527.267 303.195 525.453 301.37C523.925 299.866 520.616 300.154 514.05 300.796C509.851 301.201 510.473 301.404 509.196 301.387C501.035 301.235 497.944 293.074 491.664 293.885C491.277 293.935 487.566 294.307 486.81 296.402C485.517 299.968 494.401 303.871 493.696 308.281C492.789 314.077 476.364 314.499 476.18 319.061C476.112 320.869 478.648 322.559 480.311 323.218C487.398 326.057 494.384 318.098 498.465 321.004C499.977 322.272 500.632 323.894 500.48 325.871C500.027 332.815 486.374 333.069 483.653 341.771C482.561 345.251 483.116 350.456 485.97 352.551C491.177 356.353 499.456 346.586 514.436 348.006C516.955 348.242 522.9 348.867 524.462 352.568C524.949 353.936 524.966 355.322 524.479 356.708C522.715 362.959 515.813 363.314 510.96 368.654C505.451 374.703 504.141 385.483 507.551 388.288C511.732 391.718 520.264 380.938 533.077 383.709C537.477 384.723 541.273 386.835 544.447 390.062C548.309 394.05 550.593 398.815 551.282 404.34Z" fill="#00B98F"/>
<path d="M552.911 387.781C552.659 387.781 552.491 387.663 552.424 387.409C549.048 375.396 543.792 364.261 536.688 354.021C531.801 347.043 526.763 341.838 517.627 332.41C510.12 324.637 502.294 317.084 494.384 309.937C494.132 309.717 494.115 309.481 494.334 309.227C494.569 308.974 494.804 308.957 495.056 309.193C502.999 316.341 510.825 323.911 518.349 331.683C527.518 341.162 532.573 346.384 537.511 353.43C544.682 363.771 549.972 374.99 553.398 387.122C553.482 387.46 553.381 387.663 553.045 387.764C553.011 387.781 552.961 387.781 552.911 387.781Z" fill="#059C79"/>
<path d="M573.231 470.289H549.435C545.337 453.713 542.381 431.375 541.306 399.558C541.273 398.494 541.441 397.48 541.827 396.483C542.196 395.486 542.751 394.607 543.49 393.847C544.229 393.087 545.068 392.495 546.042 392.09C547.016 391.667 548.024 391.464 549.082 391.464H573.567C574.609 391.464 575.616 391.667 576.573 392.073C577.548 392.495 578.387 393.07 579.126 393.83C579.848 394.59 580.402 395.452 580.789 396.432C581.175 397.412 581.36 398.426 581.326 399.491C580.554 431.324 577.581 453.696 573.231 470.289Z" fill="#D7E3F8"/>
<path d="M530.844 142.387H90.8782V403.58C90.8782 404.509 91.0629 405.405 91.4156 406.249C91.7514 407.111 92.2553 407.855 92.9102 408.514C93.5484 409.156 94.3041 409.663 95.1438 410.017C96.0003 410.372 96.8736 410.558 97.7972 410.558H523.925C524.848 410.558 525.722 410.372 526.578 410.017C527.418 409.663 528.173 409.156 528.812 408.514C529.467 407.855 529.97 407.111 530.323 406.249C530.659 405.405 530.844 404.509 530.844 403.58V142.387Z" fill="#E9F0FB"/>
<path d="M523.925 127.568H97.7972C96.8736 127.568 96.0003 127.754 95.1438 128.109C94.3041 128.464 93.5484 128.954 92.9102 129.613C92.2553 130.272 91.7514 131.015 91.4156 131.877C91.0629 132.722 90.8782 133.617 90.8782 134.547V142.387H530.844V134.547C530.844 133.617 530.659 132.722 530.323 131.877C529.97 131.015 529.467 130.272 528.812 129.613C528.173 128.954 527.418 128.464 526.578 128.109C525.722 127.754 524.848 127.568 523.925 127.568Z" fill="#BFCDE6"/>
<path d="M103.188 135.594C103.188 136.253 102.953 136.811 102.5 137.284C102.029 137.757 101.475 137.977 100.82 137.977C100.165 137.977 99.611 137.757 99.1408 137.284C98.6873 136.811 98.4522 136.253 98.4522 135.594C98.4522 134.935 98.6873 134.378 99.1408 133.905C99.611 133.448 100.165 133.212 100.82 133.212C101.475 133.212 102.029 133.448 102.5 133.905C102.953 134.378 103.188 134.935 103.188 135.594Z" fill="#B0C0D8"/>
<path d="M111.484 135.594C111.484 136.253 111.266 136.811 110.796 137.284C110.325 137.757 109.771 137.977 109.116 137.977C108.461 137.977 107.907 137.757 107.454 137.284C106.983 136.811 106.748 136.253 106.748 135.594C106.748 134.935 106.983 134.378 107.454 133.905C107.907 133.448 108.461 133.212 109.116 133.212C109.771 133.212 110.325 133.448 110.796 133.905C111.266 134.378 111.484 134.935 111.484 135.594Z" fill="#B0C0D8"/>
<path d="M119.797 135.594C119.797 136.253 119.562 136.811 119.092 137.284C118.638 137.757 118.067 137.977 117.429 137.977C116.774 137.977 116.203 137.757 115.75 137.284C115.28 136.811 115.061 136.253 115.061 135.594C115.061 134.935 115.28 134.378 115.75 133.905C116.203 133.448 116.774 133.212 117.429 133.212C118.067 133.212 118.638 133.448 119.092 133.905C119.562 134.378 119.797 134.935 119.797 135.594Z" fill="#B0C0D8"/>
<path d="M561.308 391.566C556.27 392.597 550.492 394.591 549.149 398.832C547.822 403.056 551.718 407.044 549.838 409.257C547.57 411.91 540.937 407.449 536.554 411.082C536.033 411.504 534.404 412.839 534.522 414.478C534.74 417.621 541.105 417.942 542.633 422.42C543.288 424.228 543.137 425.968 542.18 427.641C539.106 432.068 529.635 426.424 524.395 431.037C521.103 433.927 523.555 437.289 520.112 442.831C516.602 448.509 508.894 453.341 504.595 451.01C500.38 448.712 499.573 439.638 502.781 434.214C504.998 430.463 508.625 429.331 508.189 427.404C507.584 424.701 500.111 425.732 498.952 422.42C498.163 420.122 500.699 416.726 503.235 414.935C508.038 411.521 512.656 414.056 516.283 410.17C517.425 409.223 518.03 408.007 518.097 406.537C517.694 402.786 509.751 402.583 509.079 398.815C508.642 396.297 511.665 393.256 514.486 392.005C518.467 390.265 520.381 392.8 525.52 391.786C530.222 390.856 530.021 388.423 535.647 386.345C539.828 384.841 544.111 384.452 548.477 385.213C553.364 386.075 557.647 388.204 561.308 391.566Z" fill="#01C99C"/>
<path d="M512.37 436.613C512.303 436.613 512.253 436.596 512.202 436.579C511.934 436.478 511.833 436.275 511.95 436.005C515.931 425.225 521.271 415.171 527.989 405.861C528.812 404.712 529.567 403.529 530.357 402.279C532.842 398.409 535.395 394.405 540.198 391.38C543.909 389.065 547.906 387.612 552.239 387.004C552.524 386.97 552.709 387.088 552.743 387.392C552.793 387.697 552.659 387.866 552.357 387.916C548.175 388.491 544.279 389.893 540.668 392.14C536.05 395.064 533.531 398.984 531.112 402.786C530.34 403.985 529.55 405.219 528.711 406.385C522.044 415.644 516.737 425.613 512.773 436.309C512.706 436.512 512.572 436.613 512.37 436.613Z" fill="#00B98F"/>
<path d="M225.145 306.355H179.029C178.441 306.355 177.938 306.152 177.534 305.729C177.115 305.324 176.913 304.817 176.913 304.226C176.913 303.634 177.115 303.127 177.534 302.722C177.938 302.299 178.441 302.097 179.029 302.097H225.145C225.733 302.097 226.237 302.299 226.64 302.722C227.06 303.127 227.261 303.634 227.261 304.226C227.261 304.817 227.06 305.324 226.64 305.729C226.237 306.152 225.733 306.355 225.145 306.355Z" fill="#D7E3F8"/>
<path d="M298.131 371.814H252.015C251.427 371.814 250.924 371.611 250.504 371.188C250.101 370.783 249.882 370.276 249.882 369.684C249.882 369.093 250.101 368.586 250.504 368.181C250.924 367.758 251.427 367.555 252.015 367.555H298.131C298.702 367.555 299.206 367.758 299.626 368.181C300.029 368.586 300.247 369.093 300.247 369.684C300.247 370.276 300.029 370.783 299.626 371.188C299.206 371.611 298.702 371.814 298.131 371.814Z" fill="#D7E3F8"/>
<path d="M271.261 322.779H179.029C178.441 322.779 177.938 322.576 177.534 322.153C177.115 321.748 176.913 321.241 176.913 320.649C176.913 320.058 177.115 319.551 177.534 319.146C177.938 318.723 178.441 318.52 179.029 318.52H271.261C271.849 318.52 272.353 318.723 272.772 319.146C273.175 319.551 273.394 320.058 273.394 320.649C273.394 321.241 273.175 321.748 272.772 322.153C272.353 322.576 271.849 322.779 271.261 322.779Z" fill="#D7E3F8"/>
<path d="M310.424 339.202H179.029C178.441 339.202 177.954 339 177.534 338.577C177.115 338.155 176.913 337.665 176.913 337.073C176.913 336.482 177.115 335.975 177.534 335.553C177.954 335.147 178.441 334.927 179.029 334.927H310.424C310.995 334.927 311.499 335.147 311.919 335.553C312.322 335.975 312.54 336.482 312.54 337.073C312.54 337.665 312.322 338.155 311.919 338.577C311.499 339 310.995 339.202 310.424 339.202Z" fill="#D7E3F8"/>
<path d="M298.131 355.626H179.029C178.441 355.626 177.938 355.423 177.534 355.001C177.115 354.579 176.913 354.089 176.913 353.497C176.913 352.906 177.115 352.399 177.534 351.976C177.938 351.571 178.441 351.351 179.029 351.351H298.131C298.702 351.351 299.206 351.571 299.626 351.976C300.029 352.399 300.247 352.906 300.247 353.497C300.247 354.089 300.029 354.579 299.626 355.001C299.206 355.423 298.702 355.626 298.131 355.626Z" fill="#D7E3F8"/>
<path d="M327.621 177.161H405.461V236.587H327.621V177.161Z" fill="#F5F8FD"/>
<path d="M386.299 189.833C386.265 191.05 385.98 192.233 385.476 193.348C384.972 194.48 384.284 195.46 383.394 196.305C382.503 197.15 381.496 197.792 380.354 198.231C379.212 198.671 378.036 198.873 376.81 198.856C375.601 198.823 374.426 198.569 373.3 198.062C372.192 197.572 371.201 196.879 370.362 196.001C369.505 195.122 368.867 194.108 368.413 192.959C367.96 191.81 367.742 190.628 367.758 189.394C367.775 188.161 368.01 186.995 368.497 185.846C368.968 184.714 369.639 183.717 370.513 182.855C371.369 181.993 372.377 181.334 373.502 180.861C374.627 180.388 375.803 180.151 377.029 180.151C378.288 180.185 379.481 180.439 380.623 180.946C381.781 181.453 382.789 182.145 383.645 183.058C384.519 183.97 385.191 185.001 385.644 186.184C386.097 187.35 386.316 188.566 386.299 189.833Z" fill="white"/>
<path d="M426 236.587H351.922L388.952 197.944L426 236.587Z" fill="white"/>
<path d="M388.952 236.587H302.783L345.876 191.625L388.952 236.587Z" fill="white"/>
<path d="M332.525 181.892H400.574V232.076H332.525V181.892Z" fill="#BFCDE6"/>
<path d="M377.684 193.973C377.684 194.818 377.516 195.646 377.197 196.423C376.878 197.2 376.424 197.893 375.82 198.485C375.232 199.093 374.543 199.549 373.771 199.87C372.998 200.191 372.192 200.36 371.352 200.36C370.513 200.36 369.69 200.191 368.917 199.87C368.145 199.549 367.456 199.093 366.868 198.485C366.281 197.893 365.81 197.2 365.491 196.423C365.172 195.646 365.004 194.818 365.004 193.973C365.004 193.128 365.172 192.317 365.491 191.54C365.81 190.746 366.281 190.07 366.868 189.462C367.456 188.87 368.145 188.397 368.917 188.076C369.707 187.755 370.513 187.603 371.352 187.603C372.192 187.586 372.998 187.755 373.771 188.076C374.543 188.397 375.232 188.87 375.82 189.462C376.424 190.07 376.878 190.746 377.197 191.54C377.516 192.317 377.684 193.128 377.684 193.973Z" fill="#B0C0D8"/>
<path d="M418.526 232.076H353.769L386.148 199.448L418.526 232.076Z" fill="#B0C0D8"/>
<path d="M386.148 232.076H310.794L348.479 194.108L386.148 232.076Z" fill="#D7E3F8"/>
<path d="M327.621 245.678H405.461V305.104H327.621V245.678Z" fill="#F5F8FD"/>
<path d="M426 305.104H351.922L388.952 266.461L426 305.104Z" fill="white"/>
<path d="M388.952 305.104H302.783L345.876 260.142L388.952 305.104Z" fill="white"/>
<path d="M332.525 250.409H400.574V300.593H332.525V250.409Z" fill="#BFCDE6"/>
<path d="M377.684 262.49C377.684 263.335 377.516 264.146 377.197 264.94C376.878 265.718 376.424 266.41 375.82 267.002C375.232 267.61 374.543 268.066 373.771 268.387C372.998 268.708 372.192 268.877 371.352 268.877C370.513 268.877 369.69 268.708 368.917 268.387C368.145 268.066 367.456 267.61 366.868 267.002C366.281 266.41 365.81 265.718 365.491 264.94C365.172 264.146 365.004 263.335 365.004 262.49C365.004 261.645 365.172 260.834 365.491 260.057C365.81 259.263 366.281 258.57 366.868 257.979C367.456 257.387 368.145 256.914 368.917 256.593C369.707 256.272 370.513 256.103 371.352 256.103C372.192 256.103 372.998 256.272 373.771 256.593C374.543 256.914 375.232 257.387 375.82 257.979C376.424 258.57 376.878 259.263 377.197 260.057C377.516 260.834 377.684 261.645 377.684 262.49Z" fill="#B0C0D8"/>
<path d="M418.526 300.593H353.769L386.148 267.965L418.526 300.593Z" fill="#B0C0D8"/>
<path d="M386.148 300.593H310.794L348.479 262.625L386.148 300.593Z" fill="#D7E3F8"/>
<path d="M327.621 314.195H405.461V373.621H327.621V314.195Z" fill="#F5F8FD"/>
<path d="M426 373.621H351.922L388.952 334.978L426 373.621Z" fill="white"/>
<path d="M388.952 373.621H302.783L345.876 328.659L388.952 373.621Z" fill="white"/>
<path d="M332.525 318.926H400.574V369.11H332.525V318.926Z" fill="#BFCDE6"/>
<path d="M377.684 331.007C377.684 331.852 377.516 332.663 377.197 333.457C376.878 334.235 376.424 334.927 375.82 335.519C375.232 336.127 374.543 336.583 373.771 336.904C372.998 337.225 372.192 337.394 371.352 337.394C370.513 337.394 369.69 337.225 368.917 336.904C368.145 336.583 367.456 336.127 366.868 335.519C366.281 334.927 365.81 334.235 365.491 333.457C365.172 332.663 365.004 331.852 365.004 331.007C365.004 330.162 365.172 329.351 365.491 328.557C365.81 327.78 366.281 327.087 366.868 326.496C367.456 325.888 368.145 325.431 368.917 325.11C369.707 324.789 370.513 324.62 371.352 324.62C372.192 324.62 372.998 324.789 373.771 325.11C374.543 325.431 375.232 325.888 375.82 326.496C376.424 327.087 376.878 327.78 377.197 328.557C377.516 329.351 377.684 330.162 377.684 331.007Z" fill="#B0C0D8"/>
<path d="M418.526 369.11H353.769L386.148 336.482L418.526 369.11Z" fill="#B0C0D8"/>
<path d="M386.148 369.11H310.794L348.479 331.143L386.148 369.11Z" fill="#D7E3F8"/>
<path d="M228.873 343.579C229.36 346.164 229.663 348.8 229.747 351.436C229.847 355.423 227.983 360.307 226.203 360.999C224.725 361.337 223.315 361.168 221.954 360.492C219.082 360.492 215.841 365.274 215.841 365.274L202.591 360.002C202.591 360.002 208.704 356.218 211.576 355.423C209.308 349.442 209.795 343.477 212.466 340.672C215.136 337.884 225.111 335.215 228.873 343.579Z" fill="#F1BAB3"/>
<path d="M195.756 360.171L220.308 367.572C217.94 360.543 206.84 355.271 195.756 360.171Z" fill="#E76F51"/>
<path d="M157.617 443.423L189.895 441.919C191.809 441.294 211.357 465.744 204.472 470.931C198.879 475.138 173.437 469.359 152.512 467.23L151.924 460.286C157.735 459.965 163.495 459.238 169.205 458.123C172.933 457.177 176.712 456.771 180.541 456.873C174.26 451.82 167.341 448.272 157.617 443.423Z" fill="#343358"/>
<path d="M190.046 469.765C176.997 468.717 156.055 464.358 152.193 463.547L152.512 467.23C173.454 469.359 198.896 475.138 204.472 470.931C205.194 470.373 205.631 469.647 205.799 468.751C204.002 470.508 200.156 470.576 190.046 469.765Z" fill="#171E45"/>
<path d="M190.516 419.446C190.516 419.446 226.774 401.349 234.13 408.767C237.808 412.468 235.624 423.721 233.391 441.412C231.14 459.12 229.528 468.43 229.528 468.43H221.803C221.803 468.43 224.053 455.115 222.659 445.062C221.82 439.097 221.618 433.116 222.038 427.1C222.038 427.1 193.505 446.447 185.159 446.447H159.867C152.008 446.447 143.661 440.55 149.27 419.7L190.516 419.446Z" fill="#343358"/>
<path d="M148.078 437.238C148.347 438.59 148.834 439.857 149.556 441.023C150.278 442.189 151.185 443.203 152.276 444.048C153.351 444.893 154.544 445.518 155.854 445.94C157.164 446.346 158.49 446.515 159.867 446.447H185.159C193.505 446.447 222.055 427.1 222.055 427.1C222.055 427.1 195.151 441.733 177.568 442.51C161.883 443.203 152.814 444.656 148.078 437.238Z" fill="#171E45"/>
<path d="M227.647 373.723C231.174 377.93 214.313 386.784 204.102 396.331C193.875 405.878 190.516 419.446 190.516 419.446C171.707 423.89 155.316 426.239 149.27 419.699C156.005 385.787 172.698 361.675 183.916 359.918C195.134 358.161 217.437 361.54 227.647 373.723Z" fill="#F4A261"/>
<path d="M182.791 421.169C185.31 420.646 187.88 420.071 190.516 419.446C190.516 419.446 193.892 405.878 204.102 396.331C207.562 393.222 211.173 390.316 214.951 387.595C194.093 395.131 185.058 415.222 182.791 421.169Z" fill="#E76F51"/>
<path d="M229.528 468.413C231.14 472.316 237.253 474.192 238.866 474.699C239.302 474.8 239.621 475.071 239.806 475.493C239.991 475.899 239.957 476.321 239.739 476.71H219.67C219.989 473.837 220.695 471.083 221.786 468.413H229.528Z" fill="#192D54"/>
<path d="M152.764 476.642H156.626C156.626 476.642 156.307 474.75 154.997 474.75C151.202 474.75 152.512 467.23 152.512 467.23C153.318 463.817 153.234 461.384 151.924 460.286C150.261 459.255 148.464 458.731 146.533 458.698V476.642H152.764Z" fill="#192D54"/>
<path d="M146.533 458.698C150.513 458.698 149.388 468.599 150.026 472.502C150.647 476.389 152.764 476.642 152.764 476.642H143.661C140.924 470.745 142.788 458.698 146.533 458.698Z" fill="#3D4F69"/>
<path d="M227.647 373.723C234.55 383.81 241.066 392.073 246.977 397.294C250.017 395.148 256.046 388.22 262.259 380.988L265.685 384.199C258.598 398.274 250.302 411.673 246.859 411.673C243.4 411.673 230.032 400.809 214.061 386.683C209.711 382.932 219.099 364.041 227.647 373.723Z" fill="#F4A261"/>
<path d="M246.087 408.767C243.45 408.716 237.169 405.185 232.198 402.127C239.47 407.99 244.844 411.673 246.859 411.673C250.302 411.673 258.598 398.274 265.685 384.199C265.685 384.216 250.722 408.852 246.087 408.767Z" fill="#E76F51"/>
<path d="M262.259 380.988C262.259 380.988 264.913 372.557 266.592 371.526C268.288 370.495 269.179 371.577 269.598 372.675C270.018 373.773 271.043 372.979 271.597 374.5C272.134 376.004 272.907 375.412 273.041 377.406C273.159 379.4 274.066 379.096 272.974 380.735C271.899 382.374 270.808 382.56 270.153 381.715C269.061 383.658 267.079 385.415 265.685 384.199L262.259 380.988Z" fill="#F1BAB3"/>
<path d="M221.988 350.151L221.887 344.305C222.928 344.897 224.037 345.116 225.212 344.947C226.17 344.711 227.043 344.288 227.815 343.663C230.67 342.024 232.501 343.832 234.751 342.7C236.162 341.804 237.119 340.588 237.623 338.999C238.144 337.428 238.093 335.857 237.472 334.319C236.431 332.545 234.886 331.48 232.87 331.126C229.999 330.652 229.075 332.629 226.707 332.004C224.053 331.311 223.818 328.507 221.786 328.507C219.889 328.507 219.603 330.94 217.269 331.227C215.153 331.497 214.481 329.622 212.298 329.993C210.753 330.331 209.611 331.21 208.872 332.612C207.965 334.336 208.889 335.265 208.015 336.533C206.907 338.104 205.093 337.225 203.716 338.712C203.061 339.608 202.692 340.605 202.608 341.72C202.524 342.835 202.742 343.883 203.279 344.863C204.573 347.262 207.041 346.84 207.831 349.222C208.334 350.709 207.612 351.571 208.351 352.72C209.241 353.784 210.383 354.325 211.777 354.308C213.608 354.088 215.253 354.528 216.748 355.609L221.501 353.598C220.611 353.514 219.973 353.058 219.62 352.213C219.418 351.79 219.385 351.351 219.502 350.895C219.62 350.422 219.889 350.067 220.275 349.797C220.913 349.577 221.484 349.695 221.988 350.151Z" fill="#192D54"/>
<path d="M445.984 215.027C442.928 221.617 441.836 229.203 442.222 231.4C442.625 233.597 446.589 234.796 446.589 234.796C447.58 236.199 446.169 245.475 446.169 245.475H460.83C461.032 241.082 457.774 232.701 457.774 232.701C457.774 232.701 461.535 227.902 461.535 222.512C461.535 217.122 454.012 210.042 445.984 215.027Z" fill="#F1BAB3"/>
<path d="M475.995 250.493C485.735 262.034 494.838 285.656 494.586 298.785C494.317 311.897 480.781 337.614 480.781 337.614L475.995 250.493Z" fill="#E76F51"/>
<path d="M482.46 337.496C480.059 389.065 476.902 437.086 479.773 467.585H472.451C464.441 416.218 460.158 365.24 459.957 345.37C459.957 332.376 481.738 328.642 482.46 337.496Z" fill="#171E45"/>
<path d="M447.764 225.52C447.764 225.52 449.847 220.822 449.847 219.319C449.847 217.832 443.818 214.841 444.204 211.647C444.506 210.313 445.077 209.096 445.867 207.998C446.673 206.882 447.664 205.987 448.839 205.311C450.015 204.618 451.274 204.196 452.618 204.027C453.961 203.858 455.288 203.959 456.581 204.348C463.92 206.443 466.103 219.42 464.995 223.323C463.903 227.209 457.774 232.701 457.774 232.701C455.691 231.907 449.36 233.799 449.36 233.495C449.36 233.208 447.378 228.798 447.378 228.798C447.664 228.984 447.966 229.085 448.302 229.119C448.621 229.153 448.94 229.102 449.259 228.967C449.561 228.832 449.813 228.646 450.032 228.392C450.25 228.122 450.384 227.835 450.451 227.497C450.67 226.703 450.451 226.06 449.796 225.57C449.125 225.097 448.453 225.064 447.764 225.52Z" fill="#192D54"/>
<path d="M441.5 323.116C441.198 336.702 438.276 364.852 439.435 401.653C440.61 438.455 444.725 467.585 444.725 467.585H451.644C453.793 419.176 459.957 349.695 464.642 347.533C469.328 345.37 482.125 347.33 482.46 337.479C482.796 327.628 482.46 323.1 482.46 323.1L441.5 323.116Z" fill="#343358"/>
<path d="M444.725 467.585C441.735 471.336 438.931 473.82 433.658 473.82C431.054 473.82 431.642 476.71 431.642 476.71H453.541C453.592 473.533 452.97 470.492 451.644 467.585H444.725Z" fill="#192D54"/>
<path d="M472.451 467.585C472.216 469.005 471.629 470.238 470.671 471.303C469.714 472.35 468.555 473.06 467.178 473.432C465.415 474.023 465.683 476.71 465.683 476.71H482.007C482.007 473.482 481.268 470.441 479.774 467.585H472.451Z" fill="#192D54"/>
<path d="M442.625 246.421C449.477 240.947 460.998 236.722 463.601 246.168L442.625 246.421Z" fill="#E76F51"/>
<path d="M432.616 248.922C441.987 244.985 469.546 242.13 475.995 250.493C482.46 258.857 482.46 323.117 482.46 323.117C471.914 329.301 457.941 328.676 441.5 323.117C442.592 301.978 440.409 288.951 437.486 277.9C434.564 266.833 427.629 251 432.616 248.922Z" fill="#F4A261"/>
<path d="M506.509 157.966H481.822C480.697 157.966 479.622 158.185 478.581 158.608C477.54 159.047 476.616 159.672 475.827 160.467C475.021 161.278 474.416 162.19 473.98 163.238C473.543 164.285 473.342 165.384 473.342 166.516V208.184L481.822 199.955H506.509C507.635 199.955 508.709 199.735 509.751 199.296C510.792 198.873 511.716 198.248 512.505 197.454C513.311 196.643 513.916 195.714 514.352 194.666C514.789 193.618 514.99 192.537 514.99 191.405V166.516C514.99 165.384 514.789 164.285 514.352 163.238C513.916 162.19 513.311 161.278 512.505 160.467C511.716 159.672 510.792 159.047 509.751 158.608C508.709 158.185 507.635 157.966 506.509 157.966Z" fill="#E9C46A"/>
<path d="M494.166 190.188L484.392 180.32C483.854 179.797 483.434 179.171 483.132 178.462C482.83 177.752 482.679 177.009 482.679 176.248C482.679 175.471 482.813 174.744 483.115 174.035C483.401 173.325 483.821 172.683 484.358 172.142C484.896 171.602 485.517 171.179 486.222 170.892C486.928 170.605 487.65 170.453 488.422 170.453C489.178 170.47 489.917 170.622 490.622 170.909C491.311 171.213 491.932 171.635 492.47 172.176L494.166 173.9L495.862 172.176C496.399 171.652 497.021 171.23 497.726 170.943C498.415 170.655 499.154 170.503 499.909 170.503C500.665 170.503 501.387 170.655 502.092 170.943C502.781 171.23 503.402 171.652 503.94 172.193C504.477 172.734 504.897 173.359 505.183 174.052C505.468 174.761 505.619 175.488 505.619 176.265C505.619 177.026 505.468 177.752 505.183 178.462C504.897 179.171 504.477 179.78 503.94 180.32L494.166 190.188Z" fill="#F5F8FD"/>
<path d="M432.616 248.922C421.314 256.559 409.945 264.298 402.135 268.083C398.441 263.166 394.444 253.771 390.43 243.937L385.442 245.475C389.12 263.91 394.645 283.442 396.929 284.879C399.213 286.315 431.374 277.41 436.261 274.91C441.719 272.105 444.187 246.506 432.616 248.922Z" fill="#F4A261"/>
<path d="M422.087 277.393C413.706 280.638 400.053 285.234 395.871 283.392C396.107 283.966 396.459 284.456 396.929 284.879C399.213 286.315 431.374 277.41 436.261 274.893C438.561 273.71 440.342 268.438 440.728 262.93C436.932 269.824 428.871 274.757 422.087 277.393Z" fill="#E76F51"/>
<path d="M385.442 245.475C384.855 242.417 380.119 238.344 379.346 237.736C378.994 237.466 379.968 233.14 380.371 231.603C380.639 230.504 382.487 230.994 382 233.613C381.815 234.644 381.899 235.658 382.218 236.638H389.053C390.884 239.578 391.572 242.45 390.43 243.937L385.442 245.475Z" fill="#F1BAB3"/>
<path d="M182.27 176.705H306.898C307.788 176.705 308.661 176.873 309.484 177.228C310.323 177.583 311.062 178.073 311.684 178.715C312.322 179.357 312.826 180.084 313.162 180.929C313.514 181.774 313.682 182.635 313.682 183.548V283.527C313.682 284.422 313.514 285.301 313.162 286.146C312.826 286.974 312.322 287.717 311.684 288.359C311.062 289.002 310.323 289.492 309.484 289.846C308.661 290.184 307.788 290.353 306.898 290.353H182.27C181.38 290.353 180.507 290.184 179.684 289.846C178.844 289.492 178.122 289.002 177.484 288.359C176.846 287.717 176.359 286.974 176.006 286.146C175.67 285.301 175.502 284.422 175.502 283.527V183.548C175.502 182.635 175.67 181.774 176.006 180.929C176.359 180.084 176.846 179.357 177.484 178.715C178.122 178.073 178.844 177.583 179.684 177.228C180.507 176.873 181.38 176.705 182.27 176.705Z" fill="#F5F8FD"/>
<path d="M263.855 241.183H243.249C242.644 241.183 242.241 240.913 242.023 240.355C241.788 239.798 241.888 239.325 242.308 238.902L252.62 228.511C252.872 228.24 253.191 228.122 253.56 228.122C253.913 228.122 254.232 228.24 254.484 228.511L264.795 238.902C265.215 239.325 265.316 239.798 265.081 240.355C264.862 240.913 264.459 241.183 263.855 241.183Z" fill="#D7E3F8"/>
<path d="M250.353 241.183H225.313C224.725 241.183 224.322 240.896 224.087 240.355C223.869 239.798 223.953 239.325 224.373 238.902L236.901 226.28C237.153 226.01 237.472 225.892 237.841 225.892C238.211 225.892 238.513 226.01 238.782 226.28L251.293 238.902C251.713 239.325 251.814 239.798 251.579 240.355C251.36 240.913 250.94 241.183 250.353 241.183Z" fill="#D7E3F8"/>
<path d="M121.544 303.55H146.231C147.356 303.55 148.431 303.77 149.472 304.209C150.513 304.631 151.437 305.256 152.226 306.068C153.032 306.862 153.637 307.791 154.073 308.839C154.493 309.886 154.712 310.968 154.712 312.117V353.768L146.231 345.539H121.544C120.419 345.539 119.344 345.319 118.303 344.897C117.261 344.457 116.338 343.832 115.548 343.038C114.742 342.227 114.138 341.315 113.701 340.267C113.264 339.219 113.063 338.121 113.063 336.989V312.117C113.063 310.968 113.264 309.886 113.701 308.839C114.138 307.791 114.742 306.862 115.548 306.068C116.338 305.256 117.261 304.631 118.303 304.209C119.344 303.77 120.419 303.55 121.544 303.55Z" fill="#BFCDE6"/>
<path d="M133.887 335.772L143.661 325.921C144.199 325.381 144.618 324.755 144.904 324.046C145.189 323.336 145.341 322.61 145.341 321.849C145.341 321.089 145.189 320.345 144.904 319.636C144.618 318.943 144.199 318.318 143.661 317.777C143.124 317.236 142.519 316.814 141.814 316.527C141.109 316.222 140.386 316.087 139.631 316.087C138.875 316.087 138.136 316.222 137.431 316.527C136.742 316.814 136.121 317.236 135.583 317.777L133.887 319.484L132.191 317.777C131.654 317.236 131.032 316.831 130.344 316.544C129.638 316.256 128.916 316.121 128.16 316.121C127.405 316.121 126.683 316.273 125.994 316.56C125.289 316.865 124.684 317.27 124.147 317.811C123.609 318.352 123.206 318.96 122.904 319.669C122.619 320.362 122.467 321.089 122.467 321.849C122.467 322.61 122.602 323.353 122.887 324.046C123.173 324.755 123.576 325.381 124.113 325.921L133.887 335.772Z" fill="#F5F8FD"/>
</svg>
