<svg width="126" height="39" viewBox="0 0 126 39" fill="none" xmlns="http://www.w3.org/2000/svg">
<path d="M23.8749 1.13186C19.8229 4.92886 18.7722 5.89753 17.8409 6.72894C16.9123 7.58106 12.5337 11.663 11.4916 12.6912C11.0316 13.1367 8.19485 15.6775 7.34014 16.4157C4.99466 18.4022 0.110598 23.2663 0.0481275 23.6264C-0.159161 24.9317 0.306528 25.8305 1.37989 26.1827C2.09546 26.4314 5.27577 27.04 7.83139 27.4078C10.228 27.773 10.2251 27.7523 9.64587 28.9981C8.19201 32.1657 7.95349 32.7511 7.68657 33.4452C7.53891 33.8544 7.34298 34.2507 7.28335 34.318C7.22372 34.388 7.09026 34.7325 7.02495 35.0925C6.89433 35.626 6.97951 35.9057 7.37989 36.5014C7.78311 37.1153 8.22892 37.3743 9.76797 37.9648C11.9488 38.7677 13.2266 38.7885 13.9592 37.9985C14.4788 37.4649 15.6118 35.121 16.8073 32.2331C17.0941 31.5156 17.4632 30.8733 17.5881 30.7982C17.7358 30.7179 19.3118 31.5726 21.0808 32.6734C25.6838 35.5146 26.1381 35.67 27.4244 34.7584C28.2507 34.1652 28.583 33.093 28.529 31.052C28.4949 29.3167 28.4779 27.0633 28.4807 25.2633C28.4921 23.5253 28.4381 19.187 28.4154 17.2031C28.3813 16.1308 28.4097 14.6804 28.4495 13.9914C28.5489 12.2224 28.5631 10.6891 28.4779 7.26507C28.4552 5.61263 28.4325 3.79442 28.4183 3.19612C28.4126 0.859904 27.6203 -0.103591 25.8768 0.137283C24.9824 0.240884 24.6416 0.424777 23.8749 1.13186ZM25.9989 2.83351C26.175 3.1236 26.2148 5.70587 26.0841 7.2314C25.9933 8.23375 25.9904 8.87608 26.0898 13.5407C26.2091 18.8633 26.2148 19.8967 26.1239 20.7152C26.0756 21.1969 26.0785 21.8781 26.1296 22.2459C26.1807 22.6111 26.2034 23.4373 26.1523 24.0615C26.0529 25.9781 26.0046 28.1149 26.0501 28.4387C26.0728 28.6018 26.0813 29.656 26.0955 30.7516C26.1239 32.1139 26.0359 32.7847 25.8342 32.8081C25.698 32.8236 23.6194 31.614 21.2739 30.1248C18.9057 28.6381 16.8499 27.4259 16.7164 27.4415C16.4239 27.4752 15.5408 29.1509 14.5697 31.5156C12.4712 36.618 12.4712 36.618 10.7221 35.9705C9.59192 35.5431 9.50389 35.2427 10.0917 33.8933C10.8726 32.1269 11.3439 31.0805 11.7273 30.2284C11.9175 29.7932 12.2498 29.0732 12.4428 28.6562C12.6359 28.2418 12.9511 27.5451 13.1641 27.1048C13.3543 26.6697 13.431 26.2475 13.3089 26.1775C13.2067 26.1076 11.2218 25.7346 8.91326 25.3384C6.60753 24.9628 4.2081 24.5743 3.55499 24.4655L2.41349 24.2635L3.38462 23.2223C3.94118 22.6396 4.70218 21.891 5.08836 21.5569C5.47454 21.2228 7.14989 19.6662 8.82523 18.107C10.5006 16.5504 12.3974 14.8021 13.0448 14.209C13.6923 13.6184 14.9473 12.4814 15.8106 11.6578C17.2076 10.3809 18.1532 9.48474 21.4414 6.41813C23.8607 4.15444 25.5617 2.63408 25.7207 2.61854C25.8087 2.60818 25.9393 2.71696 25.9989 2.83351Z" fill="#F7F7F7"/>
<path d="M96.1533 0.310848C95.8807 0.385959 95.4662 0.647553 95.2418 0.896197C94.8415 1.33391 94.8244 1.39089 94.8244 3.5225C94.8244 6.00376 94.9522 6.3819 95.8495 6.77559C96.3294 6.9802 97.3516 7.00869 104.848 7.00869C110.252 7.00869 113.656 7.06826 114.264 7.16927C116.374 7.51893 117.879 8.68704 118.39 10.3809C118.756 11.562 118.725 13.3698 118.31 14.4058C117.862 15.517 116.664 16.61 115.479 16.9907C114.17 17.4129 112.441 17.4854 103.954 17.4854C96.4231 17.5009 96.0256 17.5139 95.6394 17.7781C94.8244 18.3323 94.8244 18.2287 94.8244 26.5324C94.8244 35.0821 94.8102 34.9216 95.8012 35.4033C96.1988 35.5794 96.744 35.6235 98.8225 35.5794C102.659 35.5069 102.5 35.797 102.5 29.1147V24.2273H107.503C115.096 24.2117 116.678 24.0227 119.605 22.738C121.076 22.0957 121.443 21.8496 122.723 20.666C124.305 19.2233 125.071 18.0837 125.662 16.2888C125.966 15.4134 126 14.9316 126 12.2043C126 8.7751 125.921 8.32184 124.944 6.49845C123.473 3.7556 120.452 1.58256 116.95 0.735615C116.263 0.575032 114.858 0.370419 113.85 0.297898C111.532 0.121775 96.8405 0.137315 96.1533 0.310848Z" fill="#404040"/>
<path d="M34.5092 0.27975C34.2366 0.380762 33.8703 0.655306 33.68 0.872869L33.3308 1.27692V17.5864C33.3308 35.5302 33.2655 34.489 34.3019 34.9811C34.6994 35.1546 35.239 35.1961 37.309 35.1546C40.0946 35.1106 40.3019 35.0381 40.7477 34.0694C41.0828 33.3623 41.0828 1.88298 40.7477 1.16036C40.3331 0.27975 39.9186 0.150248 37.309 0.106217C35.6053 0.0932672 34.8755 0.121758 34.5092 0.27975Z" fill="#404040"/>
<path d="M45.1575 28.6226C44.3113 28.9981 44.1523 29.5343 44.1523 31.8601C44.1523 34.129 44.2971 34.5745 45.1092 34.9656C45.521 35.1676 46.4921 35.1831 52.2876 35.1546L58.9862 35.1106L59.449 34.634L59.9119 34.1704V31.8161C59.9119 29.2027 59.8324 28.9567 58.8612 28.5941C58.0321 28.2781 45.8731 28.3066 45.1575 28.6226Z" fill="#404040"/>
<path d="M59.3412 35.3955C60.1845 35.02 60.3436 34.4838 60.3436 32.158C60.3436 29.8917 60.1987 29.4436 59.3866 29.0525C58.9749 28.8505 58.0038 28.8349 52.2082 28.866L45.5097 28.9075L45.0468 29.384L44.5868 29.8477V32.202C44.5868 34.8179 44.6663 35.0614 45.6346 35.424C46.4637 35.74 58.6228 35.7115 59.3412 35.3955Z" fill="#404040"/>
<path d="M39.4301 1.06193C39.0694 0.393696 38.5555 0.266785 36.3264 0.266785C34.1485 0.266785 33.7197 0.380746 33.3449 1.02308C33.1518 1.34942 33.1376 2.11866 33.166 6.70562L33.2057 12.01L33.6629 12.3752L34.1087 12.7404H36.3662C38.8764 12.7404 39.112 12.6783 39.4585 11.909C39.7623 11.2537 39.7339 1.62656 39.4301 1.06193Z" fill="#404040"/>
<path d="M56.1382 0.19945C55.4936 0.455865 54.9739 1.08524 54.9739 1.60066C54.9739 1.97104 56.7203 5.94675 66.3123 27.4855C68.2489 31.8031 69.5097 34.4476 69.7454 34.6599C70.2338 35.1028 70.9266 35.1909 73.7435 35.1313C75.7908 35.0899 76.106 35.0614 76.5007 34.7894C76.9579 34.489 76.8159 34.805 88.6739 8.10425C91.6186 1.4867 91.6498 1.38569 90.8462 0.613857C90.2953 0.0854886 89.5712 -0.0284735 87.0213 0.0285077C84.2499 0.0854883 83.9972 0.17096 83.4775 1.32871C83.2873 1.74311 80.9248 7.14594 78.2158 13.3646C75.5097 19.5678 73.2409 24.6417 73.1614 24.6261C73.0847 24.6132 72.8632 24.2273 72.673 23.7688C72.4856 23.313 70.7989 19.4383 68.9247 15.1518C67.0677 10.8626 65.4917 7.24695 65.4463 7.11745C65.3526 6.88952 65.6819 6.87398 69.9981 6.83254L74.6578 6.78851L75.1633 6.31713L75.6829 5.85869L75.7283 3.60276C75.7596 1.54368 75.7454 1.31576 75.4444 0.885811C74.831 -0.0155224 74.9418 1.72649e-05 65.3355 1.72649e-05C58.407 0.0129673 56.5329 0.056998 56.1382 0.19945Z" fill="#404040"/>
<path d="M74.9162 6.69012C75.6431 6.36377 75.7794 5.90274 75.7794 3.88769C75.7794 1.92444 75.6545 1.53594 74.9588 1.19923C74.6038 1.02311 73.769 1.01275 68.7941 1.03606L63.0411 1.07491L62.6436 1.48673L62.246 1.88818V3.92654C62.246 6.19024 62.317 6.40262 63.149 6.71602C63.8589 6.99056 74.3028 6.96466 74.9162 6.69012Z" fill="#404040"/>
</svg>
